<?xml version="1.0" standalone="no"?>
<!DOCTYPE svg PUBLIC "-//W3C//DTD SVG 20010904//EN"
 "http://www.w3.org/TR/2001/REC-SVG-20010904/DTD/svg10.dtd">
<svg version="1.0" xmlns="http://www.w3.org/2000/svg"
 width="551.000000pt" height="551.000000pt" viewBox="0 0 551.000000 551.000000"
 preserveAspectRatio="xMidYMid meet">

<g transform="translate(0.000000,551.000000) scale(0.100000,-0.100000)"
fill="#000000" stroke="none">
<path d="M2585 4732 c-134 -41 -244 -120 -318 -229 -77 -112 -89 -160 -96
-368 l-6 -180 -138 -5 -139 -5 -38 -41 c-39 -43 -60 -94 -60 -151 0 -65 -106
-956 -150 -1258 -10 -71 -25 -188 -34 -260 -9 -71 -25 -206 -37 -299 -28 -219
-20 -261 54 -306 31 -19 59 -20 1115 -20 1201 0 1132 -4 1173 64 23 38 24 97
4 267 -8 70 -19 166 -25 215 -14 126 -83 715 -125 1064 -19 162 -42 356 -50
430 -8 74 -17 150 -20 168 -6 34 -53 94 -89 115 -11 6 -79 14 -151 17 l-130 5
-6 180 c-4 134 -10 191 -22 224 -64 166 -203 302 -373 363 -83 30 -255 35
-339 10z m304 -101 c151 -47 287 -188 316 -328 4 -20 3 -33 -4 -33 -5 0 -43
33 -83 73 -118 117 -233 167 -383 167 -96 -1 -145 -11 -221 -47 -63 -30 -161
-115 -195 -169 -23 -39 -46 -40 -41 -3 4 42 68 162 110 210 52 58 125 106 200
130 79 25 220 25 301 0z m-5 -241 c105 -36 201 -121 251 -225 27 -55 52 -173
42 -199 -6 -15 -51 -16 -434 -14 l-428 3 1 67 c0 58 6 79 42 152 99 199 316
288 526 216z m-710 -730 c-8 -50 15 -90 51 -90 30 0 45 26 45 79 0 48 11 57
39 33 76 -62 18 -192 -86 -192 -104 0 -159 114 -91 188 34 35 49 29 42 -18z
m1036 -9 c0 -32 6 -55 16 -65 36 -36 74 -6 74 60 0 36 3 44 18 44 47 0 74 -76
47 -133 -32 -68 -118 -91 -182 -50 -44 29 -53 116 -18 170 27 40 45 29 45 -26z
m-380 -360 c0 -56 -1 -55 95 -66 67 -8 157 -39 175 -60 9 -11 6 -31 -15 -95
-15 -44 -31 -82 -36 -86 -5 -3 -45 8 -89 25 -44 17 -91 31 -105 31 l-26 0 3
-116 3 -116 75 -27 c126 -44 174 -82 210 -163 41 -94 24 -208 -43 -284 -53
-60 -93 -80 -218 -108 -23 -5 -27 -11 -32 -62 -3 -31 -10 -61 -15 -66 -5 -5
-36 -8 -68 -6 l-59 3 -5 60 -5 59 -80 12 c-97 13 -224 53 -254 80 -2 2 9 44
25 93 21 68 33 91 45 91 9 0 43 -13 75 -29 58 -28 154 -61 181 -61 11 0 13 24
11 117 l-3 116 -65 22 c-90 30 -139 57 -177 97 -79 83 -95 200 -42 306 49 99
125 152 242 167 l47 6 0 55 0 54 75 0 75 0 0 -49z"/>
<path d="M2629 3021 c-48 -39 -15 -151 44 -151 17 0 19 5 13 31 -3 17 -6 56
-6 85 0 60 -11 68 -51 35z"/>
<path d="M2820 2490 c0 -49 3 -90 8 -90 11 0 55 31 69 50 23 28 15 70 -18 101
-52 48 -59 41 -59 -61z"/>
<path d="M1444 1425 c-27 -14 -59 -40 -73 -60 -25 -37 -38 -107 -27 -149 9
-38 61 -92 121 -126 29 -17 67 -46 84 -66 57 -65 33 -160 -48 -194 -31 -12
-167 -9 -224 5 -27 7 -28 6 -25 -21 4 -41 56 -57 173 -52 77 3 98 8 137 31 57
33 88 91 88 164 0 69 -27 106 -129 173 -91 61 -110 86 -111 144 0 32 7 45 39
77 37 37 42 39 101 39 35 0 81 -5 103 -12 35 -11 41 -10 53 7 11 15 12 21 2
31 -45 41 -189 47 -264 9z"/>
<path d="M3384 1336 c-22 -46 -33 -57 -70 -71 -54 -20 -59 -45 -9 -45 44 0 44
1 5 -182 -39 -182 -39 -211 -1 -249 25 -25 37 -29 84 -29 36 0 59 5 67 15 22
26 7 39 -43 36 -40 -2 -48 1 -63 24 -15 22 -15 33 -6 78 6 29 23 109 38 180
l28 127 63 0 c57 0 65 2 72 23 11 28 -4 38 -46 31 -17 -3 -41 -3 -53 1 -19 6
-21 12 -15 43 3 21 8 45 11 55 4 12 0 17 -15 17 -15 0 -28 -15 -47 -54z"/>
<path d="M1922 1259 c-92 -46 -157 -180 -157 -324 0 -65 4 -86 22 -116 51 -82
159 -80 245 5 20 20 40 36 43 36 4 0 5 -21 3 -47 -3 -49 9 -64 34 -40 8 8 29
86 47 173 18 88 39 184 46 214 29 122 29 112 -2 108 -21 -2 -29 -10 -37 -35
-5 -18 -13 -33 -19 -33 -5 0 -24 16 -41 37 -28 32 -39 37 -87 40 -41 3 -64 -1
-97 -18z m166 -63 c66 -65 16 -276 -83 -352 -51 -38 -104 -43 -141 -11 -28 25
-29 28 -29 114 1 75 5 97 28 148 16 33 38 71 50 84 51 55 130 63 175 17z"/>
<path d="M2473 1260 c-52 -27 -89 -69 -119 -136 -49 -111 -56 -242 -15 -308
49 -79 161 -75 240 8 19 20 39 36 44 36 5 0 7 -20 5 -45 -6 -49 2 -61 30 -46
13 7 23 35 35 98 10 48 33 159 51 246 l33 157 -23 0 c-18 0 -28 -9 -38 -35 -8
-19 -18 -35 -22 -35 -4 0 -21 16 -38 37 -28 32 -39 37 -87 40 -41 3 -64 -1
-96 -17z m165 -64 c74 -73 0 -317 -111 -370 -48 -22 -81 -20 -114 8 -27 23
-28 28 -27 113 0 74 5 98 28 148 15 33 37 71 49 84 51 55 130 63 175 17z"/>
<path d="M2950 1262 c-19 -9 -45 -32 -57 -51 -46 -69 -20 -138 74 -197 88 -56
103 -72 103 -114 0 -85 -116 -117 -242 -65 -15 6 -18 2 -18 -19 0 -36 48 -56
138 -56 125 0 199 61 189 159 -6 51 -26 74 -118 134 -68 45 -87 75 -75 121 11
45 65 62 149 47 74 -12 87 -9 87 18 0 39 -166 56 -230 23z"/>
<path d="M3749 1257 c-94 -50 -151 -167 -153 -312 -1 -103 15 -144 64 -170 62
-32 130 -16 197 45 23 22 45 40 49 40 3 0 4 -21 2 -47 -3 -47 6 -60 30 -44 13
8 30 81 92 383 25 118 25 118 0 118 -13 0 -25 -12 -34 -35 -17 -40 -30 -44
-46 -14 -32 58 -126 75 -201 36z m135 -37 c36 -13 66 -67 66 -116 0 -103 -73
-244 -143 -277 -52 -25 -84 -21 -119 14 -31 30 -31 31 -25 117 7 131 55 224
132 258 36 16 56 17 89 4z"/>
</g>
</svg>
